<?xml version="1.0" encoding="utf-8"?>
<!-- Generator: Adobe Illustrator 23.0.6, SVG Export Plug-In . SVG Version: 6.00 Build 0)  -->
<svg version="1.2" baseProfile="tiny" id="Layer_1" xmlns="http://www.w3.org/2000/svg" xmlns:xlink="http://www.w3.org/1999/xlink"
	 x="0px" y="0px" viewBox="0 0 1080 1080" xml:space="preserve">
<path fill="#333333" d="M497.83,799.49L238.45,350.23c-8.94-15.48-3.63-35.27,11.84-44.2l44.41-25.64
	c15.48-8.94,35.27-3.63,44.2,11.84l259.38,449.26c8.94,15.48,3.63,35.27-11.84,44.2l-44.41,25.64
	C526.56,820.27,506.77,814.96,497.83,799.49z"/>
<path fill="#333333" d="M620.26,722.95L428.37,390.59c-8.94-15.48-3.63-35.27,11.84-44.2l44.41-25.64
	c15.48-8.94,35.27-3.63,44.2,11.84l191.89,332.36c8.94,15.48,3.63,35.27-11.84,44.2l-44.41,25.64
	C648.99,743.73,629.2,738.43,620.26,722.95z"/>
<path fill="#333333" d="M637.25,410.13l43.97-25.39c15.48-8.94,35.27-3.63,44.2,11.84l115.95,200.83
	c8.94,15.48,3.63,35.27-11.84,44.2l-43.97,25.39c-15.48,8.94-35.27,3.63-44.2-11.84L625.4,454.34
	C616.47,438.86,621.77,419.07,637.25,410.13z"/>
<g>
	<path fill="#333333" d="M396.11,852.81h24.79l20.3,57.43l21.84-57.43h15.16l21.45,56.78l20.32-56.78h24.95l-36.83,100.94h-16.05
		l-21.52-57.52l-22.17,57.52h-15.86L396.11,852.81z"/>
	<path fill="#333333" d="M660.37,910.61h-81.36c1.17,7.18,4.31,12.88,9.42,17.12c5.1,4.24,11.61,6.35,19.53,6.35
		c9.46,0,17.6-3.31,24.4-9.93l21.34,10.02c-5.32,7.55-11.69,13.13-19.11,16.75s-16.24,5.43-26.44,5.43
		c-15.83,0-28.73-4.99-38.69-14.98c-9.96-9.99-14.94-22.5-14.94-37.53c0-15.4,4.96-28.19,14.89-38.36
		c9.93-10.17,22.37-15.26,37.34-15.26c15.89,0,28.82,5.09,38.78,15.26c9.96,10.17,14.94,23.61,14.94,40.31L660.37,910.61z
		 M635.04,890.66c-1.67-5.63-4.97-10.21-9.9-13.73s-10.64-5.29-17.15-5.29c-7.06,0-13.26,1.98-18.58,5.94
		c-3.35,2.47-6.44,6.83-9.29,13.08H635.04z"/>
	<path fill="#333333" d="M678.09,813.84h25.33v139.9h-25.33V813.84z"/>
	<path fill="#333333" d="M740.16,924.62c4.39,0,8.15,1.55,11.27,4.64c3.12,3.09,4.69,6.83,4.69,11.23c0,4.33-1.56,8.06-4.69,11.18
		c-3.12,3.12-6.88,4.68-11.27,4.68c-4.39,0-8.13-1.55-11.23-4.64c-3.09-3.09-4.64-6.83-4.64-11.23c0-4.39,1.55-8.13,4.64-11.23
		C732.02,926.16,735.77,924.62,740.16,924.62z M727.35,813.84h25.61v99.73h-25.61V813.84z"/>
</g>
<g>
</g>
<g>
</g>
<g>
</g>
<g>
</g>
<g>
</g>
<g>
</g>
<g>
</g>
<g>
</g>
<g>
</g>
<g>
</g>
<g>
</g>
<g>
</g>
<g>
</g>
<g>
</g>
<g>
</g>
</svg>
